<svg id="Warstwa_1" data-name="Warstwa 1" xmlns="http://www.w3.org/2000/svg" viewBox="0 0 212.55 117.55"><defs><style>.cls-1,.cls-2,.cls-5{fill:none;}.cls-1,.cls-5{stroke:#020203;}.cls-1{stroke-miterlimit:10;stroke-width:0.35px;}.cls-3{isolation:isolate;}.cls-4{fill:#020203;}</style></defs><path class="cls-1" d="M55.05,29.4c-.51-.67-5.5-7.08-10.56-6.16a9.24,9.24,0,0,0-2.06.7c-2.9,1.35-3.76,3.47-5.69,5.85-1.3,1.61-4.17,5.14-8.49,6.49-2,.62-3.89,1.54-5.93,2a3.81,3.81,0,0,0-2.48,1.28,3.52,3.52,0,0,0-.4,2.72A7.44,7.44,0,0,0,21.12,45c1.18,1.51,1.45,1.53,1.6,2.16a4,4,0,0,1-1,3.12,4.33,4.33,0,0,1-2,1.58c-1.14.41-1.75,0-2.5.54a2.15,2.15,0,0,0-.81,1.48C16.38,55,17.39,56,18,56.52c1.14,1,2.14,1.22,2.08,1.6s-1.21.24-2.56,1c-.56.33-1.7,1-1.76,2.08a2.33,2.33,0,0,0,1.36,2.08c.66.3,1,0,1.44.32A2.38,2.38,0,0,1,19,66c-.24.83-.73,1.21-1.84,2.24C15.28,70,14.36,70.84,14,71.56a5.81,5.81,0,0,0-.4,3.76,6.43,6.43,0,0,0,2.4,3.6,10.82,10.82,0,0,0,3.45,1.68c2.3.86,4.08,1.39,5.61,1.85,4.7,1.41,4.14,1.3,5.53,1.68,4.17,1.13,4.84.91,6.89,1.52,4.28,1.28,7,3.95,9.29,6.17a37.85,37.85,0,0,1,6.57,9.05c1.34,2.31,1.08,2.23,4.17,8.41,2.3,4.61,3.48,7,5,9.37a64.45,64.45,0,0,0,5.37,7.45" transform="translate(-13.28 -8.66)"/><path class="cls-1" d="M55.18,30.89a31.28,31.28,0,0,1-8.81-5.54A2,2,0,0,0,45,24.64c-2,0-3.81,4.72-4.13,8.53A15.72,15.72,0,0,0,41,36.76" transform="translate(-13.28 -8.66)"/><path class="cls-1" d="M46.92,37.74a5.42,5.42,0,0,1-2.61-.11,11.29,11.29,0,0,0-2-.6A8.35,8.35,0,0,0,41,37H41a7.1,7.1,0,0,0-1.28.17c-1,.21-4.36-.07-4.4.22a4.93,4.93,0,0,0,2.66.76c1.26.1,2,.26,2.5-.22a2.16,2.16,0,0,0,.46-1.78" transform="translate(-13.28 -8.66)"/><path class="cls-1" d="M25.7,62c-1.9-2.34-3.27-4.31-4.18-5.67-1-1.56-2-3.18-2.76-3-.41.11-.57.75-.6.9-.11.53.13,1.19,2.69,3.66.85.82,1.07,1,1.87,1.79s2,2.05,1.87,2.24-.87-.59-2.24-.9a4.23,4.23,0,0,0-3.43.6c-.21.18-.78.66-.67,1.19a1.23,1.23,0,0,0,1.19.82,1.66,1.66,0,0,0,1-.45c.58-.48,1.74-.93,4.29-.73" transform="translate(-13.28 -8.66)"/><path class="cls-1" d="M22,30.7A7.52,7.52,0,0,1,23.26,25a7.49,7.49,0,0,1,1.39-1.3,14.36,14.36,0,0,1,5.85-2.6c2.24-.5,2.12-.07,4.6-.56a15,15,0,0,0,5.13-1.7,14.13,14.13,0,0,0,4.44-4.32,12.8,12.8,0,0,1,2-3,9,9,0,0,1,2.87-1.87,10.75,10.75,0,0,1,4.35-.82,12.05,12.05,0,0,1,4.94,1.24,7.79,7.79,0,0,1,3.83,3.22,3.32,3.32,0,0,1,.56,2c-.2,1.58-2.23,2.94-5.08,3.34" transform="translate(-13.28 -8.66)"/><rect class="cls-2" x="45.35" y="27.46" width="167.2" height="88.33"/><g class="cls-3"><path class="cls-4" d="M59.27,99.32v-.64c8,0,8-4.4,8-13.76V57.72c0-9.68,0-13.76-8-13.76v-.64h51.84l2,19.28h-.64C111.11,50.52,103.11,44,91.75,44h-8v26.4c10.48,0,15.52-3.92,16-12.48h.64L99,83.72h-.64C98.79,76,94.23,71,83.75,71V89.48c0,7.44,1.2,9.2,6.4,9.2,14.4,0,22.8-9,25.28-23.36h.64l-3.84,24Z" transform="translate(-13.28 -8.66)"/><path class="cls-4" d="M183.35,97.64v.64a53.6,53.6,0,0,1-12.72,1.84c-9.84,0-13.68-3.76-16.64-12.72-2.56-7.76-4.72-16.64-9.84-16.64a5.78,5.78,0,0,0-2.64.68V84.92c0,9.36.72,13.76,6.64,13.76v.64H117v-.64c8,0,8-4.4,8-13.76V57.72C125,48,125,44,117,44v-.64h31.12V44c-5.92,0-6.64,4.4-6.64,13.76V70.48l10.24-11.16c3.44-3.68,7.84-9,7.84-12.24,0-2.16-1.44-3.12-5.28-3.12v-.64h24.24V44c-10.24,0-21.36,10.64-26.24,15.92L142.88,70.1a26.18,26.18,0,0,1,12-2.94c8.08,0,11.92,4.8,16.64,15.76C177.75,96.76,179.51,98,183.35,97.64Z" transform="translate(-13.28 -8.66)"/></g><g class="cls-3"><path class="cls-5" d="M59.27,99.32v-.64c8,0,8-4.4,8-13.76V57.72c0-9.68,0-13.76-8-13.76v-.64h51.84l2,19.28h-.64C111.11,50.52,103.11,44,91.75,44h-8v26.4c10.48,0,15.52-3.92,16-12.48h.64L99,83.72h-.64C98.79,76,94.23,71,83.75,71V89.48c0,7.44,1.2,9.2,6.4,9.2,14.4,0,22.8-9,25.28-23.36h.64l-3.84,24Z" transform="translate(-13.28 -8.66)"/><path class="cls-5" d="M183.35,97.64v.64a53.6,53.6,0,0,1-12.72,1.84c-9.84,0-13.68-3.76-16.64-12.72-2.56-7.76-4.72-16.64-9.84-16.64a5.78,5.78,0,0,0-2.64.68V84.92c0,9.36.72,13.76,6.64,13.76v.64H117v-.64c8,0,8-4.4,8-13.76V57.72C125,48,125,44,117,44v-.64h31.12V44c-5.92,0-6.64,4.4-6.64,13.76V70.48l10.24-11.16c3.44-3.68,7.84-9,7.84-12.24,0-2.16-1.44-3.12-5.28-3.12v-.64h24.24V44c-10.24,0-21.36,10.64-26.24,15.92L142.88,70.1a26.18,26.18,0,0,1,12-2.94c8.08,0,11.92,4.8,16.64,15.76C177.75,96.76,179.51,98,183.35,97.64Z" transform="translate(-13.28 -8.66)"/></g><path class="cls-1" d="M56.63,24.33c3.49-5,10.06-1.08,13.27,2.29,4.49,4.72,2.93,12.05-.84,16.74" transform="translate(-13.28 -8.66)"/></svg>